# xmcd
#
# Track frame offsets:
#	150
#	8806
#	24133
#	44162
#	61503
#	78737
#	99234
#	111372
#	127129
#	137377
#	153250
#
# Disc length: 2207 seconds
#
# Revision: 1
# Processed by: cddbd v1.5.2PL0 Copyright (c) Steve Scherf et al.
# Submitted via: audiograbber 1.83.01
#
DISCID=83089d0b
DTITLE=Justin Anderson - After Midnite
DYEAR=1900
DGENRE=
TTITLE0=Coffee Cup
TTITLE1=Take It Downtown
TTITLE2=Soft Whispers
TTITLE3=Walked On Past Me
TTITLE4=Give You All My Love
TTITLE5=Dreams
TTITLE6=Brown Hair Brown Eyes
TTITLE7=Old Dude Time
TTITLE8=What ´cba Do
TTITLE9=Look In Your Eyes
TTITLE10=Litt
EXTD=
EXTT0=
EXTT1=
EXTT2=
EXTT3=
EXTT4=
EXTT5=
EXTT6=
EXTT7=
EXTT8=
EXTT9=
EXTT10=
PLAYORDER=
